<svg xmlns="http://www.w3.org/2000/svg" xmlns:xlink="http://www.w3.org/1999/xlink" width="1800" zoomAndPan="magnify" viewBox="0 0 1350 787.499972" height="1050" preserveAspectRatio="xMidYMid meet" version="1.0"><defs><g/><clipPath id="c938499b43"><rect x="0" width="229" y="0" height="30"/></clipPath><clipPath id="e8a335bf11"><path d="M 19.167969 261 L 1330 261 L 1330 754 L 19.167969 754 Z M 19.167969 261 " clip-rule="nonzero"/></clipPath><clipPath id="a3addaea33"><path d="M 19.167969 33 L 1330 33 L 1330 526 L 19.167969 526 Z M 19.167969 33 " clip-rule="nonzero"/></clipPath></defs><g transform="matrix(1, 0, 0, 1, 490, 371)"><g clip-path="url(#c938499b43)"><g fill="#000000" fill-opacity="1"><g transform="translate(0.991817, 22.375707)"><g><path d="M 6.65625 0 L 4.921875 0 L 4.921875 -13.40625 L 0.1875 -13.40625 L 0.1875 -14.953125 L 11.390625 -14.953125 L 11.390625 -13.40625 L 6.65625 -13.40625 Z M 6.65625 0 "/></g></g></g><g fill="#000000" fill-opacity="1"><g transform="translate(12.580732, 22.375707)"><g><path d="M 6.53125 0.203125 C 4.875 0.203125 3.566406 -0.300781 2.609375 -1.3125 C 1.648438 -2.320312 1.171875 -3.722656 1.171875 -5.515625 C 1.171875 -7.316406 1.613281 -8.75 2.5 -9.8125 C 3.394531 -10.882812 4.59375 -11.421875 6.09375 -11.421875 C 7.5 -11.421875 8.609375 -10.957031 9.421875 -10.03125 C 10.242188 -9.101562 10.65625 -7.882812 10.65625 -6.375 L 10.65625 -5.296875 L 2.9375 -5.296875 C 2.96875 -3.984375 3.296875 -2.984375 3.921875 -2.296875 C 4.554688 -1.617188 5.445312 -1.28125 6.59375 -1.28125 C 7.800781 -1.28125 9 -1.53125 10.1875 -2.03125 L 10.1875 -0.515625 C 9.582031 -0.265625 9.007812 -0.0820312 8.46875 0.03125 C 7.9375 0.144531 7.289062 0.203125 6.53125 0.203125 Z M 6.078125 -10 C 5.179688 -10 4.460938 -9.703125 3.921875 -9.109375 C 3.390625 -8.523438 3.078125 -7.71875 2.984375 -6.6875 L 8.84375 -6.6875 C 8.84375 -7.75 8.601562 -8.566406 8.125 -9.140625 C 7.644531 -9.710938 6.960938 -10 6.078125 -10 Z M 6.078125 -10 "/></g></g></g><g fill="#000000" fill-opacity="1"><g transform="translate(24.333303, 22.375707)"><g><path d="M 4.5 -5.734375 L 0.609375 -11.21875 L 2.53125 -11.21875 L 5.5 -6.921875 L 8.4375 -11.21875 L 10.359375 -11.21875 L 6.453125 -5.734375 L 10.5625 0 L 8.640625 0 L 5.5 -4.546875 L 2.328125 0 L 0.40625 0 Z M 4.5 -5.734375 "/></g></g></g><g fill="#000000" fill-opacity="1"><g transform="translate(35.308507, 22.375707)"><g><path d="M 5.421875 -1.203125 C 5.722656 -1.203125 6.015625 -1.222656 6.296875 -1.265625 C 6.578125 -1.304688 6.796875 -1.351562 6.953125 -1.40625 L 6.953125 -0.109375 C 6.773438 -0.015625 6.503906 0.0546875 6.140625 0.109375 C 5.785156 0.171875 5.460938 0.203125 5.171875 0.203125 C 3.003906 0.203125 1.921875 -0.9375 1.921875 -3.21875 L 1.921875 -9.890625 L 0.3125 -9.890625 L 0.3125 -10.71875 L 1.921875 -11.421875 L 2.640625 -13.8125 L 3.625 -13.8125 L 3.625 -11.21875 L 6.875 -11.21875 L 6.875 -9.890625 L 3.625 -9.890625 L 3.625 -3.296875 C 3.625 -2.617188 3.78125 -2.097656 4.09375 -1.734375 C 4.414062 -1.378906 4.859375 -1.203125 5.421875 -1.203125 Z M 5.421875 -1.203125 "/></g></g></g><g fill="#000000" fill-opacity="1"><g transform="translate(42.70373, 22.375707)"><g><path d="M 11.484375 -5.609375 C 11.484375 -3.785156 11.019531 -2.359375 10.09375 -1.328125 C 9.175781 -0.304688 7.90625 0.203125 6.28125 0.203125 C 5.28125 0.203125 4.390625 -0.03125 3.609375 -0.5 C 2.828125 -0.96875 2.222656 -1.640625 1.796875 -2.515625 C 1.378906 -3.398438 1.171875 -4.429688 1.171875 -5.609375 C 1.171875 -7.441406 1.628906 -8.867188 2.546875 -9.890625 C 3.460938 -10.910156 4.734375 -11.421875 6.359375 -11.421875 C 7.921875 -11.421875 9.164062 -10.894531 10.09375 -9.84375 C 11.019531 -8.800781 11.484375 -7.390625 11.484375 -5.609375 Z M 2.9375 -5.609375 C 2.9375 -4.179688 3.222656 -3.09375 3.796875 -2.34375 C 4.367188 -1.59375 5.210938 -1.21875 6.328125 -1.21875 C 7.429688 -1.21875 8.269531 -1.585938 8.84375 -2.328125 C 9.425781 -3.078125 9.71875 -4.171875 9.71875 -5.609375 C 9.71875 -7.035156 9.425781 -8.117188 8.84375 -8.859375 C 8.269531 -9.597656 7.421875 -9.96875 6.296875 -9.96875 C 5.191406 -9.96875 4.351562 -9.601562 3.78125 -8.875 C 3.21875 -8.144531 2.9375 -7.054688 2.9375 -5.609375 Z M 2.9375 -5.609375 "/></g></g></g><g fill="#000000" fill-opacity="1"><g transform="translate(55.356411, 22.375707)"><g/></g></g><g fill="#000000" fill-opacity="1"><g transform="translate(60.797983, 22.375707)"><g><path d="M 9.4375 -1.5 L 9.34375 -1.5 C 8.5625 -0.363281 7.390625 0.203125 5.828125 0.203125 C 4.359375 0.203125 3.210938 -0.296875 2.390625 -1.296875 C 1.578125 -2.296875 1.171875 -3.722656 1.171875 -5.578125 C 1.171875 -7.421875 1.578125 -8.851562 2.390625 -9.875 C 3.210938 -10.90625 4.359375 -11.421875 5.828125 -11.421875 C 7.347656 -11.421875 8.515625 -10.867188 9.328125 -9.765625 L 9.453125 -9.765625 L 9.375 -10.5625 L 9.34375 -11.359375 L 9.34375 -15.921875 L 11.046875 -15.921875 L 11.046875 0 L 9.65625 0 Z M 6.03125 -1.21875 C 7.195312 -1.21875 8.039062 -1.53125 8.5625 -2.15625 C 9.082031 -2.789062 9.34375 -3.8125 9.34375 -5.21875 L 9.34375 -5.578125 C 9.34375 -7.160156 9.078125 -8.289062 8.546875 -8.96875 C 8.015625 -9.65625 7.171875 -10 6.015625 -10 C 5.015625 -10 4.25 -9.609375 3.71875 -8.828125 C 3.195312 -8.054688 2.9375 -6.96875 2.9375 -5.5625 C 2.9375 -4.125 3.195312 -3.039062 3.71875 -2.3125 C 4.25 -1.582031 5.019531 -1.21875 6.03125 -1.21875 Z M 6.03125 -1.21875 "/></g></g></g><g fill="#000000" fill-opacity="1"><g transform="translate(73.634777, 22.375707)"><g><path d="M 11.484375 -5.609375 C 11.484375 -3.785156 11.019531 -2.359375 10.09375 -1.328125 C 9.175781 -0.304688 7.90625 0.203125 6.28125 0.203125 C 5.28125 0.203125 4.390625 -0.03125 3.609375 -0.5 C 2.828125 -0.96875 2.222656 -1.640625 1.796875 -2.515625 C 1.378906 -3.398438 1.171875 -4.429688 1.171875 -5.609375 C 1.171875 -7.441406 1.628906 -8.867188 2.546875 -9.890625 C 3.460938 -10.910156 4.734375 -11.421875 6.359375 -11.421875 C 7.921875 -11.421875 9.164062 -10.894531 10.09375 -9.84375 C 11.019531 -8.800781 11.484375 -7.390625 11.484375 -5.609375 Z M 2.9375 -5.609375 C 2.9375 -4.179688 3.222656 -3.09375 3.796875 -2.34375 C 4.367188 -1.59375 5.210938 -1.21875 6.328125 -1.21875 C 7.429688 -1.21875 8.269531 -1.585938 8.84375 -2.328125 C 9.425781 -3.078125 9.71875 -4.171875 9.71875 -5.609375 C 9.71875 -7.035156 9.425781 -8.117188 8.84375 -8.859375 C 8.269531 -9.597656 7.421875 -9.96875 6.296875 -9.96875 C 5.191406 -9.96875 4.351562 -9.601562 3.78125 -8.875 C 3.21875 -8.144531 2.9375 -7.054688 2.9375 -5.609375 Z M 2.9375 -5.609375 "/></g></g></g><g fill="#000000" fill-opacity="1"><g transform="translate(86.287458, 22.375707)"><g/></g></g><g fill="#000000" fill-opacity="1"><g transform="translate(91.72903, 22.375707)"><g><path d="M 9.03125 -3.0625 C 9.03125 -2.019531 8.640625 -1.210938 7.859375 -0.640625 C 7.085938 -0.078125 6 0.203125 4.59375 0.203125 C 3.101562 0.203125 1.941406 -0.03125 1.109375 -0.5 L 1.109375 -2.078125 C 1.648438 -1.804688 2.226562 -1.59375 2.84375 -1.4375 C 3.46875 -1.28125 4.066406 -1.203125 4.640625 -1.203125 C 5.523438 -1.203125 6.203125 -1.34375 6.671875 -1.625 C 7.148438 -1.90625 7.390625 -2.335938 7.390625 -2.921875 C 7.390625 -3.359375 7.203125 -3.726562 6.828125 -4.03125 C 6.453125 -4.34375 5.710938 -4.710938 4.609375 -5.140625 C 3.566406 -5.523438 2.828125 -5.863281 2.390625 -6.15625 C 1.953125 -6.445312 1.625 -6.773438 1.40625 -7.140625 C 1.1875 -7.503906 1.078125 -7.945312 1.078125 -8.46875 C 1.078125 -9.375 1.445312 -10.09375 2.1875 -10.625 C 2.9375 -11.15625 3.960938 -11.421875 5.265625 -11.421875 C 6.460938 -11.421875 7.640625 -11.175781 8.796875 -10.6875 L 8.1875 -9.296875 C 7.0625 -9.765625 6.046875 -10 5.140625 -10 C 4.328125 -10 3.71875 -9.867188 3.3125 -9.609375 C 2.90625 -9.359375 2.703125 -9.015625 2.703125 -8.578125 C 2.703125 -8.273438 2.773438 -8.015625 2.921875 -7.796875 C 3.078125 -7.585938 3.328125 -7.390625 3.671875 -7.203125 C 4.015625 -7.015625 4.671875 -6.738281 5.640625 -6.375 C 6.960938 -5.882812 7.859375 -5.394531 8.328125 -4.90625 C 8.796875 -4.414062 9.03125 -3.800781 9.03125 -3.0625 Z M 9.03125 -3.0625 "/></g></g></g><g fill="#000000" fill-opacity="1"><g transform="translate(101.722297, 22.375707)"><g><path d="M 6.53125 0.203125 C 4.875 0.203125 3.566406 -0.300781 2.609375 -1.3125 C 1.648438 -2.320312 1.171875 -3.722656 1.171875 -5.515625 C 1.171875 -7.316406 1.613281 -8.75 2.5 -9.8125 C 3.394531 -10.882812 4.59375 -11.421875 6.09375 -11.421875 C 7.5 -11.421875 8.609375 -10.957031 9.421875 -10.03125 C 10.242188 -9.101562 10.65625 -7.882812 10.65625 -6.375 L 10.65625 -5.296875 L 2.9375 -5.296875 C 2.96875 -3.984375 3.296875 -2.984375 3.921875 -2.296875 C 4.554688 -1.617188 5.445312 -1.28125 6.59375 -1.28125 C 7.800781 -1.28125 9 -1.53125 10.1875 -2.03125 L 10.1875 -0.515625 C 9.582031 -0.265625 9.007812 -0.0820312 8.46875 0.03125 C 7.9375 0.144531 7.289062 0.203125 6.53125 0.203125 Z M 6.078125 -10 C 5.179688 -10 4.460938 -9.703125 3.921875 -9.109375 C 3.390625 -8.523438 3.078125 -7.71875 2.984375 -6.6875 L 8.84375 -6.6875 C 8.84375 -7.75 8.601562 -8.566406 8.125 -9.140625 C 7.644531 -9.710938 6.960938 -10 6.078125 -10 Z M 6.078125 -10 "/></g></g></g><g fill="#000000" fill-opacity="1"><g transform="translate(113.474868, 22.375707)"><g><path d="M 3.390625 -11.21875 L 3.390625 -3.9375 C 3.390625 -3.019531 3.597656 -2.335938 4.015625 -1.890625 C 4.429688 -1.441406 5.082031 -1.21875 5.96875 -1.21875 C 7.144531 -1.21875 8.003906 -1.535156 8.546875 -2.171875 C 9.085938 -2.816406 9.359375 -3.863281 9.359375 -5.3125 L 9.359375 -11.21875 L 11.0625 -11.21875 L 11.0625 0 L 9.65625 0 L 9.40625 -1.5 L 9.328125 -1.5 C 8.972656 -0.945312 8.488281 -0.523438 7.875 -0.234375 C 7.257812 0.0546875 6.554688 0.203125 5.765625 0.203125 C 4.398438 0.203125 3.375 -0.117188 2.6875 -0.765625 C 2.007812 -1.410156 1.671875 -2.445312 1.671875 -3.875 L 1.671875 -11.21875 Z M 3.390625 -11.21875 "/></g></g></g><g fill="#000000" fill-opacity="1"><g transform="translate(126.33212, 22.375707)"><g/></g></g><g fill="#000000" fill-opacity="1"><g transform="translate(131.773691, 22.375707)"><g><path d="M 7.015625 0.203125 C 6.285156 0.203125 5.617188 0.0664062 5.015625 -0.203125 C 4.410156 -0.472656 3.90625 -0.882812 3.5 -1.4375 L 3.375 -1.4375 C 3.457031 -0.78125 3.5 -0.160156 3.5 0.421875 L 3.5 5.03125 L 1.796875 5.03125 L 1.796875 -11.21875 L 3.1875 -11.21875 L 3.421875 -9.671875 L 3.5 -9.671875 C 3.9375 -10.285156 4.441406 -10.726562 5.015625 -11 C 5.597656 -11.28125 6.265625 -11.421875 7.015625 -11.421875 C 8.503906 -11.421875 9.648438 -10.910156 10.453125 -9.890625 C 11.265625 -8.878906 11.671875 -7.453125 11.671875 -5.609375 C 11.671875 -3.773438 11.257812 -2.347656 10.4375 -1.328125 C 9.613281 -0.304688 8.472656 0.203125 7.015625 0.203125 Z M 6.765625 -9.96875 C 5.617188 -9.96875 4.789062 -9.648438 4.28125 -9.015625 C 3.769531 -8.390625 3.507812 -7.382812 3.5 -6 L 3.5 -5.609375 C 3.5 -4.035156 3.757812 -2.910156 4.28125 -2.234375 C 4.8125 -1.554688 5.65625 -1.21875 6.8125 -1.21875 C 7.78125 -1.21875 8.535156 -1.609375 9.078125 -2.390625 C 9.628906 -3.179688 9.90625 -4.265625 9.90625 -5.640625 C 9.90625 -7.035156 9.628906 -8.101562 9.078125 -8.84375 C 8.535156 -9.59375 7.765625 -9.96875 6.765625 -9.96875 Z M 6.765625 -9.96875 "/></g></g></g><g fill="#000000" fill-opacity="1"><g transform="translate(144.610486, 22.375707)"><g><path d="M 8.703125 0 L 8.359375 -1.59375 L 8.28125 -1.59375 C 7.71875 -0.894531 7.15625 -0.421875 6.59375 -0.171875 C 6.039062 0.078125 5.347656 0.203125 4.515625 0.203125 C 3.410156 0.203125 2.539062 -0.0820312 1.90625 -0.65625 C 1.28125 -1.226562 0.96875 -2.039062 0.96875 -3.09375 C 0.96875 -5.363281 2.773438 -6.550781 6.390625 -6.65625 L 8.296875 -6.71875 L 8.296875 -7.421875 C 8.296875 -8.296875 8.101562 -8.941406 7.71875 -9.359375 C 7.34375 -9.785156 6.738281 -10 5.90625 -10 C 4.976562 -10 3.921875 -9.710938 2.734375 -9.140625 L 2.21875 -10.4375 C 2.769531 -10.738281 3.375 -10.972656 4.03125 -11.140625 C 4.6875 -11.304688 5.347656 -11.390625 6.015625 -11.390625 C 7.347656 -11.390625 8.335938 -11.09375 8.984375 -10.5 C 9.628906 -9.90625 9.953125 -8.957031 9.953125 -7.65625 L 9.953125 0 Z M 4.859375 -1.203125 C 5.921875 -1.203125 6.75 -1.488281 7.34375 -2.0625 C 7.945312 -2.644531 8.25 -3.457031 8.25 -4.5 L 8.25 -5.515625 L 6.5625 -5.4375 C 5.207031 -5.394531 4.226562 -5.1875 3.625 -4.8125 C 3.03125 -4.4375 2.734375 -3.859375 2.734375 -3.078125 C 2.734375 -2.460938 2.921875 -1.992188 3.296875 -1.671875 C 3.671875 -1.359375 4.191406 -1.203125 4.859375 -1.203125 Z M 4.859375 -1.203125 "/></g></g></g><g fill="#000000" fill-opacity="1"><g transform="translate(156.260773, 22.375707)"><g><path d="M 6.921875 -11.421875 C 7.410156 -11.421875 7.851562 -11.378906 8.25 -11.296875 L 8.015625 -9.71875 C 7.554688 -9.820312 7.148438 -9.875 6.796875 -9.875 C 5.890625 -9.875 5.113281 -9.503906 4.46875 -8.765625 C 3.820312 -8.023438 3.5 -7.109375 3.5 -6.015625 L 3.5 0 L 1.796875 0 L 1.796875 -11.21875 L 3.203125 -11.21875 L 3.390625 -9.140625 L 3.484375 -9.140625 C 3.898438 -9.867188 4.398438 -10.429688 4.984375 -10.828125 C 5.566406 -11.222656 6.210938 -11.421875 6.921875 -11.421875 Z M 6.921875 -11.421875 "/></g></g></g><g fill="#000000" fill-opacity="1"><g transform="translate(164.811814, 22.375707)"><g><path d="M 8.703125 0 L 8.359375 -1.59375 L 8.28125 -1.59375 C 7.71875 -0.894531 7.15625 -0.421875 6.59375 -0.171875 C 6.039062 0.078125 5.347656 0.203125 4.515625 0.203125 C 3.410156 0.203125 2.539062 -0.0820312 1.90625 -0.65625 C 1.28125 -1.226562 0.96875 -2.039062 0.96875 -3.09375 C 0.96875 -5.363281 2.773438 -6.550781 6.390625 -6.65625 L 8.296875 -6.71875 L 8.296875 -7.421875 C 8.296875 -8.296875 8.101562 -8.941406 7.71875 -9.359375 C 7.34375 -9.785156 6.738281 -10 5.90625 -10 C 4.976562 -10 3.921875 -9.710938 2.734375 -9.140625 L 2.21875 -10.4375 C 2.769531 -10.738281 3.375 -10.972656 4.03125 -11.140625 C 4.6875 -11.304688 5.347656 -11.390625 6.015625 -11.390625 C 7.347656 -11.390625 8.335938 -11.09375 8.984375 -10.5 C 9.628906 -9.90625 9.953125 -8.957031 9.953125 -7.65625 L 9.953125 0 Z M 4.859375 -1.203125 C 5.921875 -1.203125 6.75 -1.488281 7.34375 -2.0625 C 7.945312 -2.644531 8.25 -3.457031 8.25 -4.5 L 8.25 -5.515625 L 6.5625 -5.4375 C 5.207031 -5.394531 4.226562 -5.1875 3.625 -4.8125 C 3.03125 -4.4375 2.734375 -3.859375 2.734375 -3.078125 C 2.734375 -2.460938 2.921875 -1.992188 3.296875 -1.671875 C 3.671875 -1.359375 4.191406 -1.203125 4.859375 -1.203125 Z M 4.453125 -12.953125 C 4.785156 -13.378906 5.140625 -13.890625 5.515625 -14.484375 C 5.890625 -15.085938 6.1875 -15.609375 6.40625 -16.046875 L 8.484375 -16.046875 L 8.484375 -15.84375 C 8.179688 -15.394531 7.734375 -14.847656 7.140625 -14.203125 C 6.546875 -13.554688 6.03125 -13.054688 5.59375 -12.703125 L 4.453125 -12.703125 Z M 4.453125 -12.953125 "/></g></g></g><g fill="#000000" fill-opacity="1"><g transform="translate(176.462101, 22.375707)"><g><path d="M 10.984375 -11.21875 L 10.984375 -10.140625 L 8.90625 -9.890625 C 9.09375 -9.648438 9.257812 -9.335938 9.40625 -8.953125 C 9.5625 -8.566406 9.640625 -8.132812 9.640625 -7.65625 C 9.640625 -6.550781 9.265625 -5.671875 8.515625 -5.015625 C 7.765625 -4.367188 6.734375 -4.046875 5.421875 -4.046875 C 5.085938 -4.046875 4.773438 -4.070312 4.484375 -4.125 C 3.753906 -3.738281 3.390625 -3.257812 3.390625 -2.6875 C 3.390625 -2.375 3.515625 -2.144531 3.765625 -2 C 4.023438 -1.851562 4.460938 -1.78125 5.078125 -1.78125 L 7.0625 -1.78125 C 8.269531 -1.78125 9.195312 -1.523438 9.84375 -1.015625 C 10.5 -0.503906 10.828125 0.238281 10.828125 1.21875 C 10.828125 2.457031 10.328125 3.398438 9.328125 4.046875 C 8.335938 4.703125 6.890625 5.03125 4.984375 5.03125 C 3.515625 5.03125 2.382812 4.753906 1.59375 4.203125 C 0.800781 3.660156 0.40625 2.894531 0.40625 1.90625 C 0.40625 1.21875 0.617188 0.625 1.046875 0.125 C 1.484375 -0.363281 2.097656 -0.695312 2.890625 -0.875 C 2.609375 -1.007812 2.367188 -1.210938 2.171875 -1.484375 C 1.972656 -1.753906 1.875 -2.070312 1.875 -2.4375 C 1.875 -2.84375 1.984375 -3.195312 2.203125 -3.5 C 2.421875 -3.8125 2.769531 -4.113281 3.25 -4.40625 C 2.664062 -4.632812 2.191406 -5.035156 1.828125 -5.609375 C 1.460938 -6.179688 1.28125 -6.835938 1.28125 -7.578125 C 1.28125 -8.804688 1.644531 -9.753906 2.375 -10.421875 C 3.113281 -11.085938 4.160156 -11.421875 5.515625 -11.421875 C 6.097656 -11.421875 6.625 -11.351562 7.09375 -11.21875 Z M 2.03125 1.875 C 2.03125 2.488281 2.285156 2.953125 2.796875 3.265625 C 3.316406 3.578125 4.050781 3.734375 5 3.734375 C 6.425781 3.734375 7.484375 3.519531 8.171875 3.09375 C 8.859375 2.664062 9.203125 2.085938 9.203125 1.359375 C 9.203125 0.753906 9.015625 0.332031 8.640625 0.09375 C 8.265625 -0.132812 7.554688 -0.25 6.515625 -0.25 L 4.484375 -0.25 C 3.710938 -0.25 3.109375 -0.0664062 2.671875 0.296875 C 2.242188 0.660156 2.03125 1.1875 2.03125 1.875 Z M 2.953125 -7.625 C 2.953125 -6.84375 3.171875 -6.25 3.609375 -5.84375 C 4.054688 -5.4375 4.675781 -5.234375 5.46875 -5.234375 C 7.125 -5.234375 7.953125 -6.039062 7.953125 -7.65625 C 7.953125 -9.34375 7.113281 -10.1875 5.4375 -10.1875 C 4.644531 -10.1875 4.03125 -9.96875 3.59375 -9.53125 C 3.164062 -9.101562 2.953125 -8.46875 2.953125 -7.625 Z M 2.953125 -7.625 "/></g></g></g><g fill="#000000" fill-opacity="1"><g transform="translate(187.938505, 22.375707)"><g><path d="M 6.921875 -11.421875 C 7.410156 -11.421875 7.851562 -11.378906 8.25 -11.296875 L 8.015625 -9.71875 C 7.554688 -9.820312 7.148438 -9.875 6.796875 -9.875 C 5.890625 -9.875 5.113281 -9.503906 4.46875 -8.765625 C 3.820312 -8.023438 3.5 -7.109375 3.5 -6.015625 L 3.5 0 L 1.796875 0 L 1.796875 -11.21875 L 3.203125 -11.21875 L 3.390625 -9.140625 L 3.484375 -9.140625 C 3.898438 -9.867188 4.398438 -10.429688 4.984375 -10.828125 C 5.566406 -11.222656 6.210938 -11.421875 6.921875 -11.421875 Z M 6.921875 -11.421875 "/></g></g></g><g fill="#000000" fill-opacity="1"><g transform="translate(196.489533, 22.375707)"><g><path d="M 8.703125 0 L 8.359375 -1.59375 L 8.28125 -1.59375 C 7.71875 -0.894531 7.15625 -0.421875 6.59375 -0.171875 C 6.039062 0.078125 5.347656 0.203125 4.515625 0.203125 C 3.410156 0.203125 2.539062 -0.0820312 1.90625 -0.65625 C 1.28125 -1.226562 0.96875 -2.039062 0.96875 -3.09375 C 0.96875 -5.363281 2.773438 -6.550781 6.390625 -6.65625 L 8.296875 -6.71875 L 8.296875 -7.421875 C 8.296875 -8.296875 8.101562 -8.941406 7.71875 -9.359375 C 7.34375 -9.785156 6.738281 -10 5.90625 -10 C 4.976562 -10 3.921875 -9.710938 2.734375 -9.140625 L 2.21875 -10.4375 C 2.769531 -10.738281 3.375 -10.972656 4.03125 -11.140625 C 4.6875 -11.304688 5.347656 -11.390625 6.015625 -11.390625 C 7.347656 -11.390625 8.335938 -11.09375 8.984375 -10.5 C 9.628906 -9.90625 9.953125 -8.957031 9.953125 -7.65625 L 9.953125 0 Z M 4.859375 -1.203125 C 5.921875 -1.203125 6.75 -1.488281 7.34375 -2.0625 C 7.945312 -2.644531 8.25 -3.457031 8.25 -4.5 L 8.25 -5.515625 L 6.5625 -5.4375 C 5.207031 -5.394531 4.226562 -5.1875 3.625 -4.8125 C 3.03125 -4.4375 2.734375 -3.859375 2.734375 -3.078125 C 2.734375 -2.460938 2.921875 -1.992188 3.296875 -1.671875 C 3.671875 -1.359375 4.191406 -1.203125 4.859375 -1.203125 Z M 4.859375 -1.203125 "/></g></g></g><g fill="#000000" fill-opacity="1"><g transform="translate(208.139819, 22.375707)"><g><path d="M 6.859375 -9.890625 L 4 -9.890625 L 4 0 L 2.296875 0 L 2.296875 -9.890625 L 0.296875 -9.890625 L 0.296875 -10.65625 L 2.296875 -11.28125 L 2.296875 -11.90625 C 2.296875 -14.65625 3.5 -16.03125 5.90625 -16.03125 C 6.5 -16.03125 7.195312 -15.910156 8 -15.671875 L 7.5625 -14.3125 C 6.90625 -14.519531 6.347656 -14.625 5.890625 -14.625 C 5.242188 -14.625 4.765625 -14.410156 4.453125 -13.984375 C 4.148438 -13.554688 4 -12.875 4 -11.9375 L 4 -11.21875 L 6.859375 -11.21875 Z M 6.859375 -9.890625 "/></g></g></g><g fill="#000000" fill-opacity="1"><g transform="translate(215.238419, 22.375707)"><g><path d="M 11.484375 -5.609375 C 11.484375 -3.785156 11.019531 -2.359375 10.09375 -1.328125 C 9.175781 -0.304688 7.90625 0.203125 6.28125 0.203125 C 5.28125 0.203125 4.390625 -0.03125 3.609375 -0.5 C 2.828125 -0.96875 2.222656 -1.640625 1.796875 -2.515625 C 1.378906 -3.398438 1.171875 -4.429688 1.171875 -5.609375 C 1.171875 -7.441406 1.628906 -8.867188 2.546875 -9.890625 C 3.460938 -10.910156 4.734375 -11.421875 6.359375 -11.421875 C 7.921875 -11.421875 9.164062 -10.894531 10.09375 -9.84375 C 11.019531 -8.800781 11.484375 -7.390625 11.484375 -5.609375 Z M 2.9375 -5.609375 C 2.9375 -4.179688 3.222656 -3.09375 3.796875 -2.34375 C 4.367188 -1.59375 5.210938 -1.21875 6.328125 -1.21875 C 7.429688 -1.21875 8.269531 -1.585938 8.84375 -2.328125 C 9.425781 -3.078125 9.71875 -4.171875 9.71875 -5.609375 C 9.71875 -7.035156 9.425781 -8.117188 8.84375 -8.859375 C 8.269531 -9.597656 7.421875 -9.96875 6.296875 -9.96875 C 5.191406 -9.96875 4.351562 -9.601562 3.78125 -8.875 C 3.21875 -8.144531 2.9375 -7.054688 2.9375 -5.609375 Z M 2.9375 -5.609375 "/></g></g></g></g></g><g clip-path="url(#e8a335bf11)"><path fill="#1d4355" d="M 285.011719 565.5 C 248.128906 441.246094 297.164062 333.355469 405.316406 261.199219 C 385.679688 301.121094 374.648438 346.023438 374.648438 393.519531 C 374.648438 559.378906 509.117188 693.847656 674.976562 693.847656 C 782.050781 693.847656 876.035156 637.796875 929.210938 553.441406 C 927.574219 571.042969 922.082031 606.3125 914.554688 628.144531 C 1011.605469 598.109375 1096.941406 551.382812 1174.261719 501.175781 L 1330 392.441406 C 1300.246094 449.636719 1260.441406 498.023438 1215.140625 538.972656 C 1164.304688 586.65625 1107.085938 623.632812 1045.589844 651.773438 C 770.316406 787.480469 579.636719 787.480469 304.363281 651.773438 C 242.890625 623.65625 185.671875 586.679688 134.8125 538.996094 C 89.511719 498.046875 49.707031 449.660156 19.953125 392.464844 L 175.691406 501.199219 C 210.425781 523.710938 246.75 545.5625 285.011719 565.5 " fill-opacity="1" fill-rule="evenodd"/></g><g clip-path="url(#a3addaea33)"><path fill="#289dd2" d="M 1064.941406 221.511719 C 1101.824219 345.765625 1052.789062 453.660156 944.636719 525.8125 C 964.273438 485.890625 975.304688 440.992188 975.304688 393.496094 C 975.304688 227.636719 840.835938 93.167969 674.976562 93.167969 C 567.902344 93.167969 473.917969 149.21875 420.742188 233.574219 C 422.378906 215.972656 427.871094 180.703125 435.398438 158.871094 C 338.347656 188.882812 253.011719 235.605469 175.691406 285.8125 L 19.953125 394.546875 C 49.707031 337.351562 89.511719 288.96875 134.8125 247.996094 C 185.648438 200.3125 242.867188 163.359375 304.363281 135.191406 C 579.636719 -0.492188 770.316406 -0.492188 1045.589844 135.191406 C 1107.085938 163.359375 1164.304688 200.335938 1215.140625 247.996094 C 1260.441406 288.945312 1300.246094 337.351562 1330 394.546875 L 1174.261719 285.8125 C 1139.550781 263.28125 1103.226562 241.449219 1064.941406 221.511719 " fill-opacity="1" fill-rule="evenodd"/></g><path fill="#00adef" d="M 675 185.117188 C 710.855469 185.117188 744.605469 194.1875 774.082031 210.128906 C 738.667969 219.476562 712.539062 251.710938 712.539062 290.066406 C 712.539062 335.714844 749.539062 372.714844 795.1875 372.714844 C 829.171875 372.714844 858.367188 352.195312 871.082031 322.859375 C 879.027344 344.902344 883.351562 368.695312 883.351562 393.472656 C 883.351562 508.539062 790.070312 601.847656 674.976562 601.847656 C 559.910156 601.847656 466.601562 508.5625 466.601562 393.472656 C 466.625 278.425781 559.90625 185.117188 675 185.117188 " fill-opacity="1" fill-rule="evenodd"/></svg>